<svg xmlns="http://www.w3.org/2000/svg" width="80" height="80" fill="none"><path fill="#fff" d="M10 6.667A6.667 6.667 0 0 1 16.667 0h33.905c1.768 0 3.464.702 4.714 1.953l12.761 12.761A6.667 6.667 0 0 1 70 19.428v53.905A6.667 6.667 0 0 1 63.333 80H16.667A6.667 6.667 0 0 1 10 73.333V6.667Z"/><path fill="#D7D7D7" fill-rule="evenodd" d="M16.667 0A6.667 6.667 0 0 0 10 6.667v66.666A6.667 6.667 0 0 0 16.667 80h46.666A6.667 6.667 0 0 0 70 73.333V19.428a6.667 6.667 0 0 0-1.953-4.714L55.286 1.953A6.667 6.667 0 0 0 50.572 0H16.667Z" clip-rule="evenodd"/><path fill="#fff" fill-rule="evenodd" d="M50.572 1.667H16.667a5 5 0 0 0-5 5v66.667a5 5 0 0 0 5 5h46.666a5 5 0 0 0 5-5V19.428a5 5 0 0 0-1.464-3.535L54.108 3.13a5 5 0 0 0-3.536-1.464Z" clip-rule="evenodd"/><path fill="#D7D7D7" d="M53.333.599c.72.327 1.383.783 1.953 1.353l12.761 12.762a6.663 6.663 0 0 1 1.354 1.952H58.333a5 5 0 0 1-5-5V.6Z"/></svg>